<svg width="40" height="40" viewBox="0 0 40 40" fill="none" xmlns="http://www.w3.org/2000/svg">
<g clip-path="url(#clip0_432_1037)">
<path d="M15.7895 35.7895C22.1844 35.7895 27.3684 30.6055 27.3684 24.2106C27.3684 17.8156 22.1844 12.6316 15.7895 12.6316C9.39453 12.6316 4.21053 17.8156 4.21053 24.2106C4.21053 30.6055 9.39453 35.7895 15.7895 35.7895ZM15.7895 40C7.06947 40 0 32.9306 0 24.2106C0 15.4906 7.06947 8.42108 15.7895 8.42108C24.5095 8.42108 31.5789 15.4906 31.5789 24.2106C31.5789 32.9306 24.5095 40 15.7895 40Z" fill="#FBCC5C"/>
<path d="M24.2104 27.3684C30.6053 27.3684 35.7893 22.1844 35.7893 15.7895C35.7893 9.39453 30.6053 4.21053 24.2104 4.21053C17.8154 4.21053 12.6314 9.39453 12.6314 15.7895C12.6314 22.1844 17.8154 27.3684 24.2104 27.3684ZM24.2104 31.5789C15.4904 31.5789 8.4209 24.5095 8.4209 15.7895C8.4209 7.06947 15.4904 0 24.2104 0C32.9304 0 39.9998 7.06947 39.9998 15.7895C39.9998 24.5095 32.9304 31.5789 24.2104 31.5789Z" fill="#35D07F"/>
<path d="M24.7321 31.579C25.8268 30.2522 26.6116 28.6978 27.0289 27.0291C28.6976 26.6119 30.252 25.8273 31.5788 24.7327C31.5183 26.6652 31.1021 28.57 30.351 30.3516C28.5694 31.1025 26.6646 31.5186 24.7321 31.579ZM12.9708 12.971C11.3021 13.3882 9.74765 14.1727 8.4209 15.2674C8.4814 13.3349 8.89761 11.4301 9.64869 9.64845C11.4303 8.89751 13.3351 8.48144 15.2676 8.42108C14.1729 9.74781 13.3881 11.3023 12.9708 12.971Z" fill="#5EA33B"/>
</g>
<defs>
<clipPath id="clip0_432_1037">
<rect width="40" height="40" fill="white"/>
</clipPath>
</defs>
</svg>
