<svg width="147" height="40" viewBox="0 0 147 40" fill="none" xmlns="http://www.w3.org/2000/svg">
<g clip-path="url(#clip0_432_1046)">
<path d="M15.7895 35.7895C22.1844 35.7895 27.3684 30.6055 27.3684 24.2106C27.3684 17.8156 22.1844 12.6316 15.7895 12.6316C9.39453 12.6316 4.21053 17.8156 4.21053 24.2106C4.21053 30.6055 9.39453 35.7895 15.7895 35.7895ZM15.7895 40C7.06947 40 0 32.9306 0 24.2106C0 15.4906 7.06947 8.42108 15.7895 8.42108C24.5095 8.42108 31.5789 15.4906 31.5789 24.2106C31.5789 32.9306 24.5095 40 15.7895 40Z" fill="#FBCC5C"/>
<path d="M24.2104 27.3684C30.6053 27.3684 35.7893 22.1844 35.7893 15.7895C35.7893 9.39453 30.6053 4.21053 24.2104 4.21053C17.8154 4.21053 12.6314 9.39453 12.6314 15.7895C12.6314 22.1844 17.8154 27.3684 24.2104 27.3684ZM24.2104 31.5789C15.4904 31.5789 8.4209 24.5095 8.4209 15.7895C8.4209 7.06947 15.4904 0 24.2104 0C32.9304 0 39.9998 7.06947 39.9998 15.7895C39.9998 24.5095 32.9304 31.5789 24.2104 31.5789Z" fill="#35D07F"/>
<path d="M24.7321 31.579C25.8268 30.2522 26.6116 28.6978 27.0289 27.0291C28.6976 26.6119 30.252 25.8273 31.5788 24.7327C31.5183 26.6652 31.1021 28.57 30.351 30.3516C28.5694 31.1025 26.6646 31.5186 24.7321 31.579ZM12.9708 12.971C11.3021 13.3882 9.74765 14.1727 8.4209 15.2674C8.4814 13.3349 8.89761 11.4301 9.64869 9.64845C11.4303 8.89751 13.3351 8.48144 15.2676 8.42108C14.1729 9.74781 13.3881 11.3023 12.9708 12.971Z" fill="#5EA33B"/>
</g>
<path d="M56.44 28.24C55.3733 28.24 54.3867 28.0467 53.48 27.66C52.5867 27.2733 51.8 26.7333 51.12 26.04C50.4533 25.3467 49.9333 24.5333 49.56 23.6C49.1867 22.6667 49 21.6467 49 20.54C49 19.4333 49.18 18.4133 49.54 17.48C49.9133 16.5333 50.4333 15.72 51.1 15.04C51.78 14.3467 52.5733 13.8133 53.48 13.44C54.3867 13.0533 55.3733 12.86 56.44 12.86C57.5067 12.86 58.46 13.04 59.3 13.4C60.1533 13.76 60.8733 14.24 61.46 14.84C62.0467 15.4267 62.4667 16.0733 62.72 16.78L60.28 17.92C60 17.1733 59.5267 16.56 58.86 16.08C58.1933 15.5867 57.3867 15.34 56.44 15.34C55.5067 15.34 54.68 15.56 53.96 16C53.2533 16.44 52.7 17.0467 52.3 17.82C51.9133 18.5933 51.72 19.5 51.72 20.54C51.72 21.58 51.9133 22.4933 52.3 23.28C52.7 24.0533 53.2533 24.66 53.96 25.1C54.68 25.54 55.5067 25.76 56.44 25.76C57.3867 25.76 58.1933 25.52 58.86 25.04C59.5267 24.5467 60 23.9267 60.28 23.18L62.72 24.32C62.4667 25.0267 62.0467 25.68 61.46 26.28C60.8733 26.8667 60.1533 27.34 59.3 27.7C58.46 28.06 57.5067 28.24 56.44 28.24ZM69.673 28.24C68.553 28.24 67.573 27.9867 66.733 27.48C65.893 26.9733 65.2396 26.2867 64.773 25.42C64.3063 24.5533 64.073 23.5933 64.073 22.54C64.073 21.4467 64.3063 20.48 64.773 19.64C65.253 18.7867 65.8996 18.1133 66.713 17.62C67.5396 17.1267 68.4596 16.88 69.473 16.88C70.3263 16.88 71.073 17.02 71.713 17.3C72.3663 17.58 72.9196 17.9667 73.373 18.46C73.8263 18.9533 74.173 19.52 74.413 20.16C74.653 20.7867 74.773 21.4667 74.773 22.2C74.773 22.3867 74.7596 22.58 74.733 22.78C74.7196 22.98 74.6863 23.1533 74.633 23.3H66.233V21.3H73.153L71.913 22.24C72.033 21.6267 71.9996 21.08 71.813 20.6C71.6396 20.12 71.3463 19.74 70.933 19.46C70.533 19.18 70.0463 19.04 69.473 19.04C68.9263 19.04 68.4396 19.18 68.013 19.46C67.5863 19.7267 67.2596 20.1267 67.033 20.66C66.8196 21.18 66.7396 21.8133 66.793 22.56C66.7396 23.2267 66.8263 23.82 67.053 24.34C67.293 24.8467 67.6396 25.24 68.093 25.52C68.5596 25.8 69.093 25.94 69.693 25.94C70.293 25.94 70.7996 25.8133 71.213 25.56C71.6396 25.3067 71.973 24.9667 72.213 24.54L74.333 25.58C74.1196 26.1 73.7863 26.56 73.333 26.96C72.8796 27.36 72.3396 27.6733 71.713 27.9C71.0996 28.1267 70.4196 28.24 69.673 28.24ZM76.7591 28V12.86H79.3791V28H76.7591ZM87.1181 28.24C86.0515 28.24 85.0781 27.9933 84.1981 27.5C83.3315 27.0067 82.6381 26.3333 82.1181 25.48C81.6115 24.6267 81.3581 23.6533 81.3581 22.56C81.3581 21.4667 81.6115 20.4933 82.1181 19.64C82.6381 18.7867 83.3315 18.1133 84.1981 17.62C85.0648 17.1267 86.0315 16.88 87.0981 16.88C88.1781 16.88 89.1515 17.1267 90.0181 17.62C90.8848 18.1133 91.5715 18.7867 92.0781 19.64C92.5981 20.4933 92.8581 21.4667 92.8581 22.56C92.8581 23.6533 92.5981 24.6267 92.0781 25.48C91.5581 26.3333 90.8648 27.0067 89.9981 27.5C89.1315 27.9933 88.1715 28.24 87.1181 28.24ZM87.0981 25.84C87.6981 25.84 88.2181 25.7 88.6581 25.42C89.1115 25.14 89.4648 24.7533 89.7181 24.26C89.9848 23.7667 90.1181 23.2 90.1181 22.56C90.1181 21.92 89.9848 21.36 89.7181 20.88C89.4648 20.3867 89.1115 20 88.6581 19.72C88.2181 19.4267 87.6981 19.28 87.0981 19.28C86.5115 19.28 85.9915 19.4267 85.5381 19.72C85.0848 20 84.7248 20.3867 84.4581 20.88C84.2048 21.3733 84.0781 21.9333 84.0781 22.56C84.0781 23.1867 84.2048 23.7533 84.4581 24.26C84.7248 24.7533 85.0848 25.14 85.5381 25.42C85.9915 25.7 86.5115 25.84 87.0981 25.84Z" fill="white"/>
<path d="M102 10.5C102 8.29086 103.791 6.5 106 6.5H143C145.209 6.5 147 8.29086 147 10.5V29.5C147 31.7091 145.209 33.5 143 33.5H106C103.791 33.5 102 31.7091 102 29.5V10.5Z" fill="#7A55FF" fill-opacity="0.2"/>
<path d="M111.008 25.5V15.07H112.912V23.82H117.378V25.5H111.008ZM118.736 25.5V17.884H120.57V25.5H118.736ZM118.736 17.03V15.07H120.57V17.03H118.736ZM124.839 25.5L121.843 17.884H123.845L126.015 23.876H125.273L127.457 17.884H129.459L126.463 25.5H124.839ZM134.228 25.668C133.444 25.668 132.758 25.4907 132.17 25.136C131.582 24.7813 131.125 24.3007 130.798 23.694C130.471 23.0873 130.308 22.4153 130.308 21.678C130.308 20.9127 130.471 20.236 130.798 19.648C131.134 19.0507 131.587 18.5793 132.156 18.234C132.735 17.8887 133.379 17.716 134.088 17.716C134.685 17.716 135.208 17.814 135.656 18.01C136.113 18.206 136.501 18.4767 136.818 18.822C137.135 19.1673 137.378 19.564 137.546 20.012C137.714 20.4507 137.798 20.9267 137.798 21.44C137.798 21.5707 137.789 21.706 137.77 21.846C137.761 21.986 137.737 22.1073 137.7 22.21H131.82V20.81H136.664L135.796 21.468C135.88 21.0387 135.857 20.656 135.726 20.32C135.605 19.984 135.399 19.718 135.11 19.522C134.83 19.326 134.489 19.228 134.088 19.228C133.705 19.228 133.365 19.326 133.066 19.522C132.767 19.7087 132.539 19.9887 132.38 20.362C132.231 20.726 132.175 21.1693 132.212 21.692C132.175 22.1587 132.235 22.574 132.394 22.938C132.562 23.2927 132.805 23.568 133.122 23.764C133.449 23.96 133.822 24.058 134.242 24.058C134.662 24.058 135.017 23.9693 135.306 23.792C135.605 23.6147 135.838 23.3767 136.006 23.078L137.49 23.806C137.341 24.17 137.107 24.492 136.79 24.772C136.473 25.052 136.095 25.2713 135.656 25.43C135.227 25.5887 134.751 25.668 134.228 25.668Z" fill="#9577FF"/>
<defs>
<clipPath id="clip0_432_1046">
<rect width="40" height="40" fill="white"/>
</clipPath>
</defs>
</svg>
