<svg width="22" height="16" viewBox="0 0 22 16" fill="none" xmlns="http://www.w3.org/2000/svg">
<path d="M19 2C19 2 16.7075 0.206 14 0L13.756 0.488C16.204 1.087 17.327 1.9455 18.5 3C16.4775 1.9675 14.4805 1 11 1C7.5195 1 5.5225 1.9675 3.5 3C4.673 1.9455 6.009 0.9925 8.244 0.488L8 0C5.1595 0.2685 3 2 3 2C3 2 0.4395 5.7125 0 13C2.581 15.9765 6.5 16 6.5 16L7.3195 14.9075C5.9285 14.424 4.3575 13.5605 3 12C4.619 13.225 7.0625 14.5 11 14.5C14.9375 14.5 17.381 13.225 19 12C17.6425 13.5605 16.0715 14.424 14.6805 14.9075L15.5 16C15.5 16 19.419 15.9765 22 13C21.5605 5.7125 19 2 19 2ZM7.75 11C6.7835 11 6 10.1045 6 9C6 7.8955 6.7835 7 7.75 7C8.7165 7 9.5 7.8955 9.5 9C9.5 10.1045 8.7165 11 7.75 11ZM14.25 11C13.2835 11 12.5 10.1045 12.5 9C12.5 7.8955 13.2835 7 14.25 7C15.2165 7 16 7.8955 16 9C16 10.1045 15.2165 11 14.25 11Z" fill="#686C74"/>
</svg>
