<svg width="20" height="20" viewBox="0 0 20 20" fill="none" xmlns="http://www.w3.org/2000/svg">
<path d="M6.48438 16.0078C6.48438 16.112 6.41927 16.1641 6.28906 16.1641C6.13281 16.1901 6.05469 16.138 6.05469 16.0078C6.05469 15.9297 6.11979 15.8906 6.25 15.8906C6.40625 15.8646 6.48438 15.9036 6.48438 16.0078ZM5.42969 16.0469C5.27344 16.0208 5.20833 15.9557 5.23438 15.8516C5.28646 15.7474 5.3776 15.7214 5.50781 15.7734C5.63802 15.7995 5.6901 15.8646 5.66406 15.9688C5.63802 16.0729 5.5599 16.099 5.42969 16.0469ZM6.99219 15.7734C7.1224 15.7734 7.1875 15.8125 7.1875 15.8906C7.21354 15.9688 7.16146 16.0339 7.03125 16.0859C6.90104 16.112 6.82292 16.0729 6.79688 15.9688C6.79688 15.8646 6.86198 15.7995 6.99219 15.7734ZM9.57031 0.8125C11.3411 0.8125 12.9818 1.22917 14.4922 2.0625C16.0026 2.89583 17.1875 4.04167 18.0469 5.5C18.9323 6.95833 19.375 8.57292 19.375 10.3438C19.375 12.5052 18.763 14.4453 17.5391 16.1641C16.3411 17.8568 14.7656 19.0286 12.8125 19.6797C12.6042 19.7318 12.4349 19.7057 12.3047 19.6016C12.2005 19.4974 12.1484 19.3672 12.1484 19.2109C12.1484 19.1849 12.1484 18.7682 12.1484 17.9609C12.1484 17.1276 12.1484 16.4505 12.1484 15.9297C12.1484 15.0964 11.9271 14.4974 11.4844 14.1328C12.0573 14.0547 12.5 13.9896 12.8125 13.9375C13.125 13.8854 13.5156 13.7682 13.9844 13.5859C14.4531 13.4036 14.8047 13.1693 15.0391 12.8828C15.2995 12.5964 15.5208 12.1927 15.7031 11.6719C15.8854 11.151 15.9766 10.526 15.9766 9.79688C15.9766 9.30208 15.8984 8.89844 15.7422 8.58594C15.5859 8.27344 15.3255 7.92188 14.9609 7.53125C15.2734 6.72396 15.2474 5.83854 14.8828 4.875C14.6224 4.79688 14.2708 4.84896 13.8281 5.03125C13.3854 5.1875 12.9948 5.36979 12.6562 5.57812L12.1875 5.92969C11.3802 5.69531 10.5469 5.57812 9.6875 5.57812C8.85417 5.57812 8.04688 5.69531 7.26562 5.92969C7.13542 5.82552 6.95312 5.70833 6.71875 5.57812C6.48438 5.42188 6.11979 5.2526 5.625 5.07031C5.15625 4.86198 4.80469 4.79688 4.57031 4.875C4.17969 5.83854 4.14062 6.72396 4.45312 7.53125C3.85417 8.18229 3.55469 8.9375 3.55469 9.79688C3.55469 10.526 3.64583 11.151 3.82812 11.6719C4.01042 12.1927 4.21875 12.5964 4.45312 12.8828C4.6875 13.1693 5.02604 13.4036 5.46875 13.5859C5.91146 13.7682 6.28906 13.8984 6.60156 13.9766C6.9401 14.0286 7.38281 14.0807 7.92969 14.1328C7.59115 14.4453 7.38281 14.888 7.30469 15.4609C7.04427 15.5651 6.77083 15.6432 6.48438 15.6953C6.22396 15.7474 5.88542 15.6953 5.46875 15.5391C5.05208 15.3828 4.71354 15.0833 4.45312 14.6406C4.29688 14.3542 4.08854 14.1328 3.82812 13.9766C3.59375 13.7943 3.38542 13.6901 3.20312 13.6641L2.96875 13.625C2.39583 13.625 2.36979 13.8203 2.89062 14.2109C3.07292 14.3151 3.25521 14.4844 3.4375 14.7188C3.61979 14.9531 3.75 15.1615 3.82812 15.3438L3.98438 15.6562C4.08854 15.9688 4.27083 16.2292 4.53125 16.4375C4.79167 16.6458 5.07812 16.776 5.39062 16.8281C5.70312 16.8802 6.0026 16.9062 6.28906 16.9062C6.57552 16.9062 6.8099 16.8932 6.99219 16.8672L7.26562 16.8281C7.26562 17.1406 7.26562 17.6094 7.26562 18.2344C7.29167 18.8594 7.30469 19.1849 7.30469 19.2109C7.30469 19.3672 7.23958 19.4974 7.10938 19.6016C7.00521 19.7057 6.84896 19.7318 6.64062 19.6797C4.66146 19.0286 3.0599 17.8568 1.83594 16.1641C0.611979 14.4453 0 12.5052 0 10.3438C0 7.63542 0.911458 5.36979 2.73438 3.54688C4.58333 1.72396 6.86198 0.8125 9.57031 0.8125ZM3.78906 14.2891C3.84115 14.237 3.90625 14.25 3.98438 14.3281C4.0625 14.4062 4.07552 14.4714 4.02344 14.5234C3.97135 14.5755 3.90625 14.5625 3.82812 14.4844C3.75 14.4062 3.73698 14.3411 3.78906 14.2891ZM3.35938 13.9766C3.41146 13.9245 3.47656 13.9115 3.55469 13.9375C3.63281 13.9896 3.65885 14.0417 3.63281 14.0938C3.60677 14.1719 3.55469 14.1849 3.47656 14.1328C3.3724 14.0807 3.33333 14.0286 3.35938 13.9766ZM4.64844 15.3438C4.70052 15.2656 4.77865 15.2786 4.88281 15.3828C4.98698 15.487 5.01302 15.5781 4.96094 15.6562C4.88281 15.7344 4.79167 15.7214 4.6875 15.6172C4.58333 15.513 4.57031 15.4219 4.64844 15.3438ZM4.17969 14.7969C4.25781 14.7188 4.33594 14.7448 4.41406 14.875C4.49219 14.9792 4.49219 15.0573 4.41406 15.1094C4.33594 15.1615 4.25781 15.1354 4.17969 15.0312C4.1276 14.901 4.1276 14.8229 4.17969 14.7969Z" fill="#686C74"/>
</svg>
