<svg width="250" height="35" viewBox="0 0 250 35" fill="none" xmlns="http://www.w3.org/2000/svg">
<g clip-path="url(#clip0_731_3177)">
<path d="M56.9 28.8C57.6 28.8 58.2 28.8 58.8 28.7V25.3C58.4 25.4 58.1 25.4 57.8 25.4C56.9 25.4 56.2 25.2 55.7 24.7C55.3 24.3 55 23.6 55 22.8V15.9H58.7V12.4H55V8.79999H51.1V9.99999C51.1 10.8 50.9 11.4 50.4 11.8C50 12.2 49.4 12.4 48.6 12.4H48.3V15.9H51.1V23C51.1 24.8 51.6 26.2 52.6 27.2C53.7 28.3 55.1 28.8 56.9 28.8Z" fill="#FAFAFB"/>
<path d="M65.4 29C67.5 29 69.2 28.3 70.4 26.9V28.6H74.1V17.9C74.1 16.8 73.8 15.8 73.2 14.9C72.6 14 71.8 13.4 70.8 12.9C69.8 12.4 68.7 12.2 67.3 12.2C65.7 12.2 64.2 12.6 63 13.4C61.7 14.2 60.9 15.2 60.4 16.5L63.6 18C63.9 17.3 64.4 16.7 65 16.2C65.6 15.7 66.4 15.5 67.2 15.5C68.1 15.5 68.8 15.7 69.3 16.2C69.9 16.7 70.1 17.2 70.1 17.9V18.4L65.3 19.2C63.4 19.5 62 20.1 61.1 21C60.2 21.9 59.7 23 59.7 24.4C59.7 25.8 60.2 27 61.2 27.8C62.4 28.6 63.7 29 65.4 29ZM63.9 24.2C63.9 23.1 64.7 22.4 66.2 22.1L70.3 21.4V22.1C70.3 23.2 69.9 24.1 69.1 24.9C68.3 25.7 67.4 26.1 66.1 26.1C65.4 26.1 64.9 25.9 64.5 25.6C64.1 25.2 63.9 24.8 63.9 24.2Z" fill="#FAFAFB"/>
<path d="M76.5 28.6H80.4V6.19998H76.5V28.6Z" fill="#FAFAFB"/>
<path d="M90.5 29C92.1 29 93.6 28.6 94.8 27.9C96 27.1 96.9 26.2 97.4 25.1L94.3 23.6C93.9 24.2 93.4 24.7 92.8 25.1C92.2 25.5 91.4 25.7 90.5 25.7C89.3 25.7 88.4 25.3 87.6 24.6C86.8 23.9 86.4 22.9 86.2 21.8H97.8C97.9 21.6 97.9 21.3 97.9 21.1C97.9 20.8 98 20.5 98 20.2C98 18.8 97.7 17.4 97.1 16.3C96.5 15.1 95.6 14.2 94.4 13.5C93.2 12.8 91.8 12.4 90.1 12.4C88.6 12.4 87.2 12.8 86 13.5C84.8 14.2 83.8 15.2 83.1 16.5C82.4 17.7 82.1 19.2 82.1 20.8C82.1 22.4 82.4 23.8 83.1 25.1C83.8 26.4 84.8 27.4 86 28.2C87.4 28.6 88.8 29 90.5 29ZM90.2 15.3C91.2 15.3 92.1 15.6 92.8 16.2C93.5 16.8 93.9 17.6 94 18.6H86.4C86.6 17.5 87.1 16.7 87.8 16.1C88.4 15.6 89.2 15.3 90.2 15.3Z" fill="#FAFAFB"/>
<path d="M99.8 28.6H103.7V19.1C103.7 18.1 104 17.2 104.6 16.6C105.2 16 106 15.7 107 15.7C108 15.7 108.8 16 109.3 16.6C109.9 17.2 110.2 18.1 110.2 19.1V28.6H114.1V18.2C114.1 17 113.8 15.9 113.3 15C112.8 14.1 112.1 13.3 111.1 12.8C110.2 12.3 109.1 12 108 12C107 12 106.1 12.2 105.3 12.6C104.5 13 103.9 13.6 103.5 14.4V12.4H99.9V28.6H99.8Z" fill="#FAFAFB"/>
<path d="M123.6 28.8C124.3 28.8 124.9 28.8 125.5 28.7V25.3C125.1 25.4 124.8 25.4 124.5 25.4C123.6 25.4 122.9 25.2 122.4 24.7C122 24.3 121.7 23.6 121.7 22.8V15.9H125.4V12.4H121.7V8.79999H117.8V9.99999C117.8 10.8 117.6 11.4 117.1 11.8C116.7 12.2 116.1 12.4 115.3 12.4H115V15.9H117.8V23C117.8 24.8 118.3 26.2 119.3 27.2C120.3 28.3 121.7 28.8 123.6 28.8Z" fill="#FAFAFB"/>
<path d="M135.5 34.6H139.4V27.1C140 27.7 140.7 28.2 141.6 28.5C142.5 28.8 143.4 29 144.4 29C146 29 147.4 28.6 148.6 27.9C149.8 27.1 150.8 26.1 151.5 24.9C152.2 23.6 152.6 22.2 152.6 20.6C152.6 19 152.2 17.6 151.5 16.3C150.8 15 149.8 14 148.6 13.3C147.4 12.5 146 12.2 144.4 12.2C143.3 12.2 142.3 12.4 141.4 12.8C140.5 13.2 139.8 13.7 139.2 14.5V12.6H135.5V34.6ZM143.8 25.4C142.9 25.4 142.2 25.2 141.5 24.8C140.8 24.4 140.3 23.8 139.9 23.1C139.5 22.4 139.3 21.5 139.3 20.6C139.3 19.7 139.5 18.8 139.9 18.1C140.3 17.4 140.8 16.8 141.5 16.4C142.2 16 143 15.8 143.8 15.8C144.7 15.8 145.5 16 146.1 16.5C146.8 16.9 147.3 17.5 147.7 18.2C148.1 18.9 148.3 19.8 148.3 20.7C148.3 21.6 148.1 22.5 147.7 23.2C147.3 23.9 146.8 24.5 146.1 24.9C145.5 25.2 144.7 25.4 143.8 25.4Z" fill="#FAFAFB"/>
<path d="M154.2 28.6H158.1V19.6C158.1 18.4 158.4 17.4 159.1 16.8C159.8 16.1 160.7 15.8 161.8 15.8H163.2V12.4H162.3C161.3 12.4 160.4 12.6 159.7 12.9C159 13.2 158.4 13.9 157.9 14.8V12.5H154.3V28.6H154.2Z" fill="#FAFAFB"/>
<path d="M172 29C173.6 29 175 28.6 176.3 27.9C177.6 27.2 178.6 26.2 179.4 24.9C180.2 23.6 180.6 22.2 180.6 20.5C180.6 18.9 180.2 17.4 179.4 16.2C178.6 14.9 177.6 13.9 176.3 13.2C175 12.5 173.6 12.1 172 12.1C170.4 12.1 169 12.5 167.7 13.2C166.4 13.9 165.4 14.9 164.6 16.2C163.8 17.5 163.5 18.9 163.5 20.5C163.5 22.1 163.9 23.6 164.6 24.8C165.4 26.1 166.4 27.1 167.7 27.8C169 28.6 170.4 29 172 29ZM172 25.4C171.1 25.4 170.3 25.2 169.7 24.8C169 24.4 168.5 23.8 168.1 23.1C167.7 22.3 167.5 21.5 167.5 20.6C167.5 19.7 167.7 18.8 168.1 18.1C168.5 17.4 169 16.8 169.7 16.4C170.4 16 171.2 15.7 172 15.7C172.9 15.7 173.6 15.9 174.3 16.4C175 16.8 175.5 17.4 175.9 18.1C176.3 18.8 176.5 19.7 176.5 20.6C176.5 21.5 176.3 22.4 175.9 23.1C175.5 23.8 175 24.4 174.3 24.8C173.6 25.2 172.9 25.4 172 25.4Z" fill="#FAFAFB"/>
<path d="M189.3 28.8C190 28.8 190.6 28.8 191.2 28.7V25.3C190.8 25.4 190.5 25.4 190.2 25.4C189.3 25.4 188.6 25.2 188.1 24.7C187.7 24.3 187.4 23.6 187.4 22.8V15.9H191.1V12.4H187.4V8.79999H183.5V9.99999C183.5 10.8 183.3 11.4 182.8 11.8C182.4 12.2 181.8 12.4 181 12.4H180.7V15.9H183.5V23C183.5 24.8 184 26.2 185 27.2C186.1 28.3 187.5 28.8 189.3 28.8Z" fill="#FAFAFB"/>
<path d="M200.8 29C202.4 29 203.8 28.6 205.1 27.9C206.4 27.2 207.4 26.2 208.2 24.9C209 23.6 209.4 22.2 209.4 20.5C209.4 18.9 209 17.4 208.2 16.2C207.4 14.9 206.4 13.9 205.1 13.2C203.8 12.5 202.4 12.1 200.8 12.1C199.2 12.1 197.8 12.5 196.5 13.2C195.2 13.9 194.2 14.9 193.4 16.2C192.6 17.5 192.3 18.9 192.3 20.5C192.3 22.1 192.7 23.6 193.4 24.8C194.2 26.1 195.2 27.1 196.5 27.8C197.8 28.6 199.2 29 200.8 29ZM200.8 25.4C199.9 25.4 199.1 25.2 198.5 24.8C197.8 24.4 197.3 23.8 196.9 23.1C196.5 22.3 196.3 21.5 196.3 20.6C196.3 19.7 196.5 18.8 196.9 18.1C197.3 17.4 197.8 16.8 198.5 16.4C199.2 16 200 15.7 200.8 15.7C201.7 15.7 202.4 15.9 203.1 16.4C203.8 16.8 204.3 17.4 204.7 18.1C205.1 18.8 205.3 19.7 205.3 20.6C205.3 21.5 205.1 22.4 204.7 23.1C204.3 23.8 203.8 24.4 203.1 24.8C202.4 25.2 201.7 25.4 200.8 25.4Z" fill="#FAFAFB"/>
<path d="M218.9 29C220.1 29 221.1 28.8 222.1 28.4C223.1 28 223.9 27.4 224.7 26.7C225.4 26 225.9 25.1 226.2 24.2L222.8 22.7C222.5 23.6 222 24.2 221.3 24.7C220.6 25.2 219.8 25.4 218.9 25.4C218 25.4 217.3 25.2 216.6 24.8C215.9 24.4 215.4 23.8 215.1 23.1C214.7 22.3 214.5 21.5 214.5 20.6C214.5 19.7 214.7 18.8 215.1 18.1C215.5 17.4 216 16.8 216.6 16.4C217.3 16 218 15.8 218.9 15.8C219.8 15.8 220.6 16 221.3 16.5C222 17 222.5 17.6 222.8 18.5L226.2 17C225.9 16.1 225.3 15.2 224.6 14.5C223.9 13.8 223 13.2 222 12.8C221 12.4 219.9 12.2 218.8 12.2C217.2 12.2 215.8 12.6 214.5 13.3C213.2 14 212.2 15 211.5 16.3C210.8 17.6 210.4 19 210.4 20.6C210.4 22.2 210.8 23.6 211.5 24.9C212.2 26.2 213.2 27.2 214.5 27.9C215.8 28.6 217.3 29 218.9 29Z" fill="#FAFAFB"/>
<path d="M235.8 29C237.4 29 238.8 28.6 240.1 27.9C241.4 27.2 242.4 26.2 243.2 24.9C244 23.6 244.4 22.2 244.4 20.5C244.4 18.9 244 17.4 243.2 16.2C242.4 14.9 241.4 13.9 240.1 13.2C238.8 12.5 237.4 12.1 235.8 12.1C234.2 12.1 232.8 12.5 231.5 13.2C230.2 13.9 229.2 14.9 228.4 16.2C227.6 17.5 227.3 18.9 227.3 20.5C227.3 22.1 227.7 23.6 228.4 24.8C229.2 26.1 230.2 27.1 231.5 27.8C232.8 28.6 234.3 29 235.8 29ZM235.8 25.4C234.9 25.4 234.1 25.2 233.5 24.8C232.8 24.4 232.3 23.8 231.9 23.1C231.5 22.3 231.3 21.5 231.3 20.6C231.3 19.7 231.5 18.8 231.9 18.1C232.3 17.4 232.8 16.8 233.5 16.4C234.2 16 235 15.7 235.8 15.7C236.6 15.7 237.4 15.9 238.1 16.4C238.8 16.8 239.3 17.4 239.7 18.1C240.1 18.8 240.3 19.7 240.3 20.6C240.3 21.5 240.1 22.4 239.7 23.1C239.3 23.8 238.8 24.4 238.1 24.8C237.5 25.2 236.7 25.4 235.8 25.4Z" fill="#FAFAFB"/>
<path d="M246.1 28.6H250V6.19998H246.1V28.6Z" fill="#FAFAFB"/>
<path fill-rule="evenodd" clip-rule="evenodd" d="M6.2 0.799988L0 2.09999V6.19999V12.4L26 6.99999V0.799988L7.8 4.59999C7 4.79999 6.2 4.19999 6.2 3.29999V0.799988ZM6.2 21.4C6.2 21 6.5 20.7 6.9 20.6L26 16.6V10.4L0 15.9V21.3V21.4V21.5C0.1 28.6 5.9 34.4 13 34.4C20.1 34.4 25.9 28.7 26 21.5V21.4V20L19.8 21.3V21.4C19.8 25.2 16.8 28.2 13 28.2C9.2 28.2 6.2 25.2 6.2 21.4Z" fill="#7A55FF"/>
</g>
<defs>
<clipPath id="clip0_731_3177">
<rect width="250" height="33.8" fill="white" transform="translate(0 0.799988)"/>
</clipPath>
</defs>
</svg>
