<svg width="248" height="40" viewBox="0 0 248 40" fill="none" xmlns="http://www.w3.org/2000/svg">
<path d="M20 40C31.0457 40 40 31.0457 40 20C40 8.9543 31.0457 0 20 0C8.9543 0 0 8.9543 0 20C0 31.0457 8.9543 40 20 40Z" fill="white"/>
<path d="M33.3327 20.4669V26.5006C33.3305 26.8769 33.2311 27.2461 33.0441 27.5723C32.8572 27.8984 32.5891 28.1703 32.266 28.3613L27.0577 31.3719C26.7351 31.5649 26.3666 31.6667 25.991 31.6667C25.6155 31.6667 25.2469 31.5649 24.9244 31.3719L19.716 28.3613C19.393 28.1703 19.1249 27.8984 18.9379 27.5723C18.751 27.2461 18.6515 26.8769 18.6494 26.5006V24.8071L21.316 23.2538V26.1974L25.9827 28.9153L30.6494 26.1974V20.7742L25.9827 18.0563L15.0494 24.412C14.7238 24.5961 14.3564 24.6928 13.9827 24.6928C13.609 24.6928 13.2416 24.5961 12.916 24.412L7.70767 21.3889C7.38962 21.1949 7.12667 20.922 6.94422 20.5965C6.76177 20.2709 6.66597 19.9037 6.66602 19.5302V13.4965C6.66817 13.1202 6.76762 12.751 6.95457 12.4248C7.14157 12.0987 7.40967 11.8268 7.73267 11.6358L12.941 8.62517C13.2643 8.43412 13.6326 8.33337 14.0077 8.33337C14.3828 8.33337 14.7511 8.43412 15.0744 8.62517L20.2827 11.6358C20.6057 11.8268 20.8738 12.0987 21.0608 12.4248C21.2478 12.751 21.3472 13.1202 21.3494 13.4965V15.1899L18.666 16.7329V13.8059L13.9994 11.088L9.33267 13.8059V19.2229L13.9994 21.9408L24.9327 15.5851C25.2583 15.401 25.6257 15.3043 25.9994 15.3043C26.3731 15.3043 26.7404 15.401 27.066 15.5851L32.2744 18.6082C32.5955 18.8001 32.8618 19.0721 33.0472 19.3978C33.2327 19.7235 33.331 20.0918 33.3327 20.4669Z" fill="#7B3FE4"/>
<path d="M49.44 28V13.1H55C56.0133 13.1 56.9067 13.2867 57.68 13.66C58.4667 14.02 59.08 14.5533 59.52 15.26C59.96 15.9533 60.18 16.8 60.18 17.8C60.18 18.7867 59.9533 19.6333 59.5 20.34C59.06 21.0333 58.4533 21.5667 57.68 21.94C56.9067 22.3133 56.0133 22.5 55 22.5H52.16V28H49.44ZM52.16 20.1H55.04C55.5333 20.1 55.96 20.0067 56.32 19.82C56.68 19.62 56.96 19.3467 57.16 19C57.36 18.6533 57.46 18.2533 57.46 17.8C57.46 17.3333 57.36 16.9333 57.16 16.6C56.96 16.2533 56.68 15.9867 56.32 15.8C55.96 15.6 55.5333 15.5 55.04 15.5H52.16V20.1ZM67.0986 28.24C66.0319 28.24 65.0586 27.9933 64.1786 27.5C63.3119 27.0067 62.6186 26.3333 62.0986 25.48C61.5919 24.6267 61.3386 23.6533 61.3386 22.56C61.3386 21.4667 61.5919 20.4933 62.0986 19.64C62.6186 18.7867 63.3119 18.1133 64.1786 17.62C65.0453 17.1267 66.0119 16.88 67.0786 16.88C68.1586 16.88 69.1319 17.1267 69.9986 17.62C70.8653 18.1133 71.5519 18.7867 72.0586 19.64C72.5786 20.4933 72.8386 21.4667 72.8386 22.56C72.8386 23.6533 72.5786 24.6267 72.0586 25.48C71.5386 26.3333 70.8453 27.0067 69.9786 27.5C69.1119 27.9933 68.1519 28.24 67.0986 28.24ZM67.0786 25.84C67.6786 25.84 68.1986 25.7 68.6386 25.42C69.0919 25.14 69.4453 24.7533 69.6986 24.26C69.9653 23.7667 70.0986 23.2 70.0986 22.56C70.0986 21.92 69.9653 21.36 69.6986 20.88C69.4453 20.3867 69.0919 20 68.6386 19.72C68.1986 19.4267 67.6786 19.28 67.0786 19.28C66.4919 19.28 65.9719 19.4267 65.5186 19.72C65.0653 20 64.7053 20.3867 64.4386 20.88C64.1853 21.3733 64.0586 21.9333 64.0586 22.56C64.0586 23.1867 64.1853 23.7533 64.4386 24.26C64.7053 24.7533 65.0653 25.14 65.5186 25.42C65.9719 25.7 66.4919 25.84 67.0786 25.84ZM74.8255 28V12.86H77.4455V28H74.8255ZM81.1845 32.42C80.8912 32.42 80.6045 32.3933 80.3245 32.34C80.0445 32.3 79.7912 32.2267 79.5645 32.12V29.92C79.7379 29.96 79.9445 30 80.1845 30.04C80.4379 30.08 80.6712 30.1 80.8845 30.1C81.4845 30.1 81.9179 29.96 82.1845 29.68C82.4645 29.4 82.7112 29.0333 82.9245 28.58L83.6445 26.9L83.6045 29.1L78.8645 17.12H81.6845L85.0045 25.96H84.0045L87.3045 17.12H90.1445L85.4045 29.1C85.1245 29.8067 84.7845 30.4067 84.3845 30.9C83.9845 31.3933 83.5179 31.7667 82.9845 32.02C82.4645 32.2867 81.8645 32.42 81.1845 32.42ZM96.668 32.4C95.8546 32.4 95.1013 32.2667 94.408 32C93.7146 31.7333 93.1146 31.36 92.608 30.88C92.1146 30.4133 91.7546 29.86 91.528 29.22L93.968 28.3C94.128 28.8067 94.4413 29.2133 94.908 29.52C95.388 29.84 95.9746 30 96.668 30C97.2013 30 97.668 29.9 98.068 29.7C98.4813 29.5 98.8013 29.2067 99.028 28.82C99.2546 28.4467 99.368 27.9933 99.368 27.46V24.98L99.868 25.58C99.4946 26.2333 98.9946 26.7267 98.368 27.06C97.7413 27.3933 97.028 27.56 96.228 27.56C95.2146 27.56 94.308 27.3267 93.508 26.86C92.708 26.3933 92.0813 25.7533 91.628 24.94C91.1746 24.1267 90.948 23.2133 90.948 22.2C90.948 21.1733 91.1746 20.26 91.628 19.46C92.0813 18.66 92.7013 18.0333 93.488 17.58C94.2746 17.1133 95.168 16.88 96.168 16.88C96.9813 16.88 97.6946 17.0533 98.308 17.4C98.9346 17.7333 99.4546 18.22 99.868 18.86L99.508 19.52V17.12H101.988V27.46C101.988 28.4067 101.755 29.2533 101.288 30C100.835 30.7467 100.208 31.3333 99.408 31.76C98.6213 32.1867 97.708 32.4 96.668 32.4ZM96.548 25.14C97.108 25.14 97.5946 25.02 98.008 24.78C98.4346 24.5267 98.768 24.18 99.008 23.74C99.248 23.3 99.368 22.7933 99.368 22.22C99.368 21.66 99.2413 21.16 98.988 20.72C98.748 20.2667 98.4146 19.9133 97.988 19.66C97.5746 19.4067 97.0946 19.28 96.548 19.28C96.0013 19.28 95.508 19.4067 95.068 19.66C94.628 19.9133 94.2813 20.2667 94.028 20.72C93.788 21.16 93.668 21.66 93.668 22.22C93.668 22.78 93.788 23.28 94.028 23.72C94.2813 24.16 94.6213 24.5067 95.048 24.76C95.488 25.0133 95.988 25.14 96.548 25.14ZM109.755 28.24C108.688 28.24 107.715 27.9933 106.835 27.5C105.968 27.0067 105.275 26.3333 104.755 25.48C104.248 24.6267 103.995 23.6533 103.995 22.56C103.995 21.4667 104.248 20.4933 104.755 19.64C105.275 18.7867 105.968 18.1133 106.835 17.62C107.702 17.1267 108.668 16.88 109.735 16.88C110.815 16.88 111.788 17.1267 112.655 17.62C113.522 18.1133 114.208 18.7867 114.715 19.64C115.235 20.4933 115.495 21.4667 115.495 22.56C115.495 23.6533 115.235 24.6267 114.715 25.48C114.195 26.3333 113.502 27.0067 112.635 27.5C111.768 27.9933 110.808 28.24 109.755 28.24ZM109.735 25.84C110.335 25.84 110.855 25.7 111.295 25.42C111.748 25.14 112.102 24.7533 112.355 24.26C112.622 23.7667 112.755 23.2 112.755 22.56C112.755 21.92 112.622 21.36 112.355 20.88C112.102 20.3867 111.748 20 111.295 19.72C110.855 19.4267 110.335 19.28 109.735 19.28C109.148 19.28 108.628 19.4267 108.175 19.72C107.722 20 107.362 20.3867 107.095 20.88C106.842 21.3733 106.715 21.9333 106.715 22.56C106.715 23.1867 106.842 23.7533 107.095 24.26C107.362 24.7533 107.722 25.14 108.175 25.42C108.628 25.7 109.148 25.84 109.735 25.84ZM117.482 28V17.12H119.942V19.26L119.742 18.88C119.995 18.2267 120.408 17.7333 120.982 17.4C121.568 17.0533 122.248 16.88 123.022 16.88C123.822 16.88 124.528 17.0533 125.142 17.4C125.768 17.7467 126.255 18.2333 126.602 18.86C126.948 19.4733 127.122 20.1867 127.122 21V28H124.502V21.62C124.502 21.14 124.408 20.7267 124.222 20.38C124.035 20.0333 123.775 19.7667 123.442 19.58C123.122 19.38 122.742 19.28 122.302 19.28C121.875 19.28 121.495 19.38 121.162 19.58C120.828 19.7667 120.568 20.0333 120.382 20.38C120.195 20.7267 120.102 21.14 120.102 21.62V28H117.482Z" fill="white"/>
<path d="M137 10.5C137 8.29086 138.791 6.5 141 6.5H244C246.209 6.5 248 8.29086 248 10.5V29.5C248 31.7091 246.209 33.5 244 33.5H141C138.791 33.5 137 31.7091 137 29.5V10.5Z" fill="#2D2F32"/>
<path d="M150.908 25.668C150.161 25.668 149.471 25.5327 148.836 25.262C148.211 24.9913 147.66 24.6133 147.184 24.128C146.717 23.6427 146.353 23.0733 146.092 22.42C145.831 21.7667 145.7 21.0527 145.7 20.278C145.7 19.5033 145.826 18.7893 146.078 18.136C146.339 17.4733 146.703 16.904 147.17 16.428C147.646 15.9427 148.201 15.5693 148.836 15.308C149.471 15.0373 150.161 14.902 150.908 14.902C151.655 14.902 152.322 15.028 152.91 15.28C153.507 15.532 154.011 15.868 154.422 16.288C154.833 16.6987 155.127 17.1513 155.304 17.646L153.596 18.444C153.4 17.9213 153.069 17.492 152.602 17.156C152.135 16.8107 151.571 16.638 150.908 16.638C150.255 16.638 149.676 16.792 149.172 17.1C148.677 17.408 148.29 17.8327 148.01 18.374C147.739 18.9153 147.604 19.55 147.604 20.278C147.604 21.006 147.739 21.6453 148.01 22.196C148.29 22.7373 148.677 23.162 149.172 23.47C149.676 23.778 150.255 23.932 150.908 23.932C151.571 23.932 152.135 23.764 152.602 23.428C153.069 23.0827 153.4 22.6487 153.596 22.126L155.304 22.924C155.127 23.4187 154.833 23.876 154.422 24.296C154.011 24.7067 153.507 25.038 152.91 25.29C152.322 25.542 151.655 25.668 150.908 25.668ZM160.563 25.668C159.816 25.668 159.135 25.4953 158.519 25.15C157.912 24.8047 157.427 24.3333 157.063 23.736C156.708 23.1387 156.531 22.4573 156.531 21.692C156.531 20.9267 156.708 20.2453 157.063 19.648C157.427 19.0507 157.912 18.5793 158.519 18.234C159.126 17.8887 159.802 17.716 160.549 17.716C161.305 17.716 161.986 17.8887 162.593 18.234C163.2 18.5793 163.68 19.0507 164.035 19.648C164.399 20.2453 164.581 20.9267 164.581 21.692C164.581 22.4573 164.399 23.1387 164.035 23.736C163.671 24.3333 163.186 24.8047 162.579 25.15C161.972 25.4953 161.3 25.668 160.563 25.668ZM160.549 23.988C160.969 23.988 161.333 23.89 161.641 23.694C161.958 23.498 162.206 23.2273 162.383 22.882C162.57 22.5367 162.663 22.14 162.663 21.692C162.663 21.244 162.57 20.852 162.383 20.516C162.206 20.1707 161.958 19.9 161.641 19.704C161.333 19.4987 160.969 19.396 160.549 19.396C160.138 19.396 159.774 19.4987 159.457 19.704C159.14 19.9 158.888 20.1707 158.701 20.516C158.524 20.8613 158.435 21.2533 158.435 21.692C158.435 22.1307 158.524 22.5273 158.701 22.882C158.888 23.2273 159.14 23.498 159.457 23.694C159.774 23.89 160.138 23.988 160.549 23.988ZM166.252 25.5V17.884H167.974V19.648L167.778 19.354C167.918 18.8033 168.198 18.3927 168.618 18.122C169.038 17.8513 169.533 17.716 170.102 17.716C170.727 17.716 171.278 17.8793 171.754 18.206C172.23 18.5327 172.538 18.962 172.678 19.494L172.16 19.536C172.393 18.9293 172.743 18.4767 173.21 18.178C173.677 17.87 174.213 17.716 174.82 17.716C175.361 17.716 175.842 17.8373 176.262 18.08C176.691 18.3227 177.027 18.6633 177.27 19.102C177.513 19.5313 177.634 20.0307 177.634 20.6V25.5H175.8V21.034C175.8 20.698 175.739 20.4087 175.618 20.166C175.497 19.9233 175.329 19.7367 175.114 19.606C174.899 19.466 174.638 19.396 174.33 19.396C174.041 19.396 173.784 19.466 173.56 19.606C173.336 19.7367 173.163 19.9233 173.042 20.166C172.921 20.4087 172.86 20.698 172.86 21.034V25.5H171.026V21.034C171.026 20.698 170.965 20.4087 170.844 20.166C170.723 19.9233 170.55 19.7367 170.326 19.606C170.111 19.466 169.855 19.396 169.556 19.396C169.267 19.396 169.01 19.466 168.786 19.606C168.562 19.7367 168.389 19.9233 168.268 20.166C168.147 20.4087 168.086 20.698 168.086 21.034V25.5H166.252ZM179.465 25.5V17.884H181.299V25.5H179.465ZM179.465 17.03V15.07H181.299V17.03H179.465ZM183.273 25.5V17.884H184.995V19.382L184.855 19.116C185.032 18.6587 185.321 18.3133 185.723 18.08C186.133 17.8373 186.609 17.716 187.151 17.716C187.711 17.716 188.205 17.8373 188.635 18.08C189.073 18.3227 189.414 18.6633 189.657 19.102C189.899 19.5313 190.021 20.0307 190.021 20.6V25.5H188.187V21.034C188.187 20.698 188.121 20.4087 187.991 20.166C187.86 19.9233 187.678 19.7367 187.445 19.606C187.221 19.466 186.955 19.396 186.647 19.396C186.348 19.396 186.082 19.466 185.849 19.606C185.615 19.7367 185.433 19.9233 185.303 20.166C185.172 20.4087 185.107 20.698 185.107 21.034V25.5H183.273ZM195.548 28.58C194.978 28.58 194.451 28.4867 193.966 28.3C193.48 28.1133 193.06 27.852 192.706 27.516C192.36 27.1893 192.108 26.802 191.95 26.354L193.658 25.71C193.77 26.0647 193.989 26.3493 194.316 26.564C194.652 26.788 195.062 26.9 195.548 26.9C195.921 26.9 196.248 26.83 196.528 26.69C196.817 26.55 197.041 26.3447 197.2 26.074C197.358 25.8127 197.438 25.4953 197.438 25.122V23.386L197.788 23.806C197.526 24.2633 197.176 24.6087 196.738 24.842C196.299 25.0753 195.8 25.192 195.24 25.192C194.53 25.192 193.896 25.0287 193.336 24.702C192.776 24.3753 192.337 23.9273 192.02 23.358C191.702 22.7887 191.544 22.1493 191.544 21.44C191.544 20.7213 191.702 20.082 192.02 19.522C192.337 18.962 192.771 18.5233 193.322 18.206C193.872 17.8793 194.498 17.716 195.198 17.716C195.767 17.716 196.266 17.8373 196.696 18.08C197.134 18.3133 197.498 18.654 197.788 19.102L197.536 19.564V17.884H199.272V25.122C199.272 25.7847 199.108 26.3773 198.782 26.9C198.464 27.4227 198.026 27.8333 197.466 28.132C196.915 28.4307 196.276 28.58 195.548 28.58ZM195.464 23.498C195.856 23.498 196.196 23.414 196.486 23.246C196.784 23.0687 197.018 22.826 197.186 22.518C197.354 22.21 197.438 21.8553 197.438 21.454C197.438 21.062 197.349 20.712 197.172 20.404C197.004 20.0867 196.77 19.8393 196.472 19.662C196.182 19.4847 195.846 19.396 195.464 19.396C195.081 19.396 194.736 19.4847 194.428 19.662C194.12 19.8393 193.877 20.0867 193.7 20.404C193.532 20.712 193.448 21.062 193.448 21.454C193.448 21.846 193.532 22.196 193.7 22.504C193.877 22.812 194.115 23.0547 194.414 23.232C194.722 23.4093 195.072 23.498 195.464 23.498ZM207.911 25.668C207.248 25.668 206.632 25.5467 206.063 25.304C205.503 25.0613 205.017 24.7253 204.607 24.296C204.205 23.8573 203.911 23.3487 203.725 22.77L205.307 22.084C205.559 22.6813 205.923 23.1527 206.399 23.498C206.875 23.834 207.411 24.002 208.009 24.002C208.345 24.002 208.634 23.9507 208.877 23.848C209.129 23.736 209.32 23.5867 209.451 23.4C209.591 23.2133 209.661 22.9893 209.661 22.728C209.661 22.42 209.567 22.168 209.381 21.972C209.203 21.7667 208.933 21.608 208.569 21.496L206.567 20.852C205.755 20.6 205.143 20.222 204.733 19.718C204.322 19.214 204.117 18.6213 204.117 17.94C204.117 17.3427 204.261 16.8153 204.551 16.358C204.849 15.9007 205.26 15.546 205.783 15.294C206.315 15.0327 206.921 14.902 207.603 14.902C208.228 14.902 208.802 15.014 209.325 15.238C209.847 15.4527 210.295 15.756 210.669 16.148C211.051 16.5307 211.336 16.9833 211.523 17.506L209.955 18.206C209.749 17.6833 209.441 17.282 209.031 17.002C208.62 16.7127 208.144 16.568 207.603 16.568C207.285 16.568 207.005 16.624 206.763 16.736C206.52 16.8387 206.329 16.988 206.189 17.184C206.058 17.3707 205.993 17.5947 205.993 17.856C205.993 18.1453 206.086 18.402 206.273 18.626C206.459 18.8407 206.744 19.0087 207.127 19.13L209.045 19.732C209.875 20.0027 210.496 20.376 210.907 20.852C211.327 21.328 211.537 21.916 211.537 22.616C211.537 23.2133 211.383 23.7407 211.075 24.198C210.767 24.6553 210.342 25.0147 209.801 25.276C209.259 25.5373 208.629 25.668 207.911 25.668ZM217.101 25.668C216.355 25.668 215.673 25.4953 215.057 25.15C214.451 24.8047 213.965 24.3333 213.601 23.736C213.247 23.1387 213.069 22.4573 213.069 21.692C213.069 20.9267 213.247 20.2453 213.601 19.648C213.965 19.0507 214.451 18.5793 215.057 18.234C215.664 17.8887 216.341 17.716 217.087 17.716C217.843 17.716 218.525 17.8887 219.131 18.234C219.738 18.5793 220.219 19.0507 220.573 19.648C220.937 20.2453 221.119 20.9267 221.119 21.692C221.119 22.4573 220.937 23.1387 220.573 23.736C220.209 24.3333 219.724 24.8047 219.117 25.15C218.511 25.4953 217.839 25.668 217.101 25.668ZM217.087 23.988C217.507 23.988 217.871 23.89 218.179 23.694C218.497 23.498 218.744 23.2273 218.921 22.882C219.108 22.5367 219.201 22.14 219.201 21.692C219.201 21.244 219.108 20.852 218.921 20.516C218.744 20.1707 218.497 19.9 218.179 19.704C217.871 19.4987 217.507 19.396 217.087 19.396C216.677 19.396 216.313 19.4987 215.995 19.704C215.678 19.9 215.426 20.1707 215.239 20.516C215.062 20.8613 214.973 21.2533 214.973 21.692C214.973 22.1307 215.062 22.5273 215.239 22.882C215.426 23.2273 215.678 23.498 215.995 23.694C216.313 23.89 216.677 23.988 217.087 23.988ZM226.514 25.668C225.767 25.668 225.086 25.4953 224.47 25.15C223.863 24.8047 223.378 24.3333 223.014 23.736C222.659 23.1387 222.482 22.4573 222.482 21.692C222.482 20.9267 222.659 20.2453 223.014 19.648C223.378 19.0507 223.863 18.5793 224.47 18.234C225.077 17.8887 225.753 17.716 226.5 17.716C227.256 17.716 227.937 17.8887 228.544 18.234C229.151 18.5793 229.631 19.0507 229.986 19.648C230.35 20.2453 230.532 20.9267 230.532 21.692C230.532 22.4573 230.35 23.1387 229.986 23.736C229.622 24.3333 229.137 24.8047 228.53 25.15C227.923 25.4953 227.251 25.668 226.514 25.668ZM226.5 23.988C226.92 23.988 227.284 23.89 227.592 23.694C227.909 23.498 228.157 23.2273 228.334 22.882C228.521 22.5367 228.614 22.14 228.614 21.692C228.614 21.244 228.521 20.852 228.334 20.516C228.157 20.1707 227.909 19.9 227.592 19.704C227.284 19.4987 226.92 19.396 226.5 19.396C226.089 19.396 225.725 19.4987 225.408 19.704C225.091 19.9 224.839 20.1707 224.652 20.516C224.475 20.8613 224.386 21.2533 224.386 21.692C224.386 22.1307 224.475 22.5273 224.652 22.882C224.839 23.2273 225.091 23.498 225.408 23.694C225.725 23.89 226.089 23.988 226.5 23.988ZM232.203 25.5V17.884H233.925V19.382L233.785 19.116C233.962 18.6587 234.251 18.3133 234.653 18.08C235.063 17.8373 235.539 17.716 236.081 17.716C236.641 17.716 237.135 17.8373 237.565 18.08C238.003 18.3227 238.344 18.6633 238.587 19.102C238.829 19.5313 238.951 20.0307 238.951 20.6V25.5H237.117V21.034C237.117 20.698 237.051 20.4087 236.921 20.166C236.79 19.9233 236.608 19.7367 236.375 19.606C236.151 19.466 235.885 19.396 235.577 19.396C235.278 19.396 235.012 19.466 234.779 19.606C234.545 19.7367 234.363 19.9233 234.233 20.166C234.102 20.4087 234.037 20.698 234.037 21.034V25.5H232.203Z" fill="white"/>
</svg>
