<svg width="182" height="40" viewBox="0 0 182 40" fill="none" xmlns="http://www.w3.org/2000/svg">
<g clip-path="url(#clip0_432_1047)">
<path d="M20 40C31.0457 40 40 31.0457 40 20C40 8.9543 31.0457 0 20 0C8.9543 0 0 8.9543 0 20C0 31.0457 8.9543 40 20 40Z" fill="white"/>
<path d="M33.3327 20.4669V26.5006C33.3305 26.8769 33.2311 27.2461 33.0441 27.5723C32.8572 27.8984 32.5891 28.1703 32.266 28.3613L27.0577 31.3719C26.7351 31.5649 26.3666 31.6667 25.991 31.6667C25.6155 31.6667 25.2469 31.5649 24.9244 31.3719L19.716 28.3613C19.393 28.1703 19.1249 27.8984 18.9379 27.5723C18.751 27.2461 18.6515 26.8769 18.6494 26.5006V24.8071L21.316 23.2538V26.1974L25.9827 28.9153L30.6494 26.1974V20.7742L25.9827 18.0563L15.0494 24.412C14.7238 24.5961 14.3564 24.6928 13.9827 24.6928C13.609 24.6928 13.2416 24.5961 12.916 24.412L7.70767 21.3889C7.38962 21.1949 7.12667 20.922 6.94422 20.5965C6.76177 20.2709 6.66597 19.9037 6.66602 19.5302V13.4965C6.66817 13.1202 6.76762 12.751 6.95457 12.4248C7.14157 12.0987 7.40967 11.8268 7.73267 11.6358L12.941 8.62517C13.2643 8.43412 13.6326 8.33337 14.0077 8.33337C14.3828 8.33337 14.7511 8.43412 15.0744 8.62517L20.2827 11.6358C20.6057 11.8268 20.8738 12.0987 21.0608 12.4248C21.2478 12.751 21.3472 13.1202 21.3494 13.4965V15.1899L18.666 16.7329V13.8059L13.9994 11.088L9.33267 13.8059V19.2229L13.9994 21.9408L24.9327 15.5851C25.2583 15.401 25.6257 15.3043 25.9994 15.3043C26.3731 15.3043 26.7404 15.401 27.066 15.5851L32.2744 18.6082C32.5955 18.8001 32.8618 19.0721 33.0472 19.3978C33.2327 19.7235 33.331 20.0918 33.3327 20.4669Z" fill="#7B3FE4"/>
</g>
<path d="M49.44 28V13.1H55C56.0133 13.1 56.9067 13.2867 57.68 13.66C58.4667 14.02 59.08 14.5533 59.52 15.26C59.96 15.9533 60.18 16.8 60.18 17.8C60.18 18.7867 59.9533 19.6333 59.5 20.34C59.06 21.0333 58.4533 21.5667 57.68 21.94C56.9067 22.3133 56.0133 22.5 55 22.5H52.16V28H49.44ZM52.16 20.1H55.04C55.5333 20.1 55.96 20.0067 56.32 19.82C56.68 19.62 56.96 19.3467 57.16 19C57.36 18.6533 57.46 18.2533 57.46 17.8C57.46 17.3333 57.36 16.9333 57.16 16.6C56.96 16.2533 56.68 15.9867 56.32 15.8C55.96 15.6 55.5333 15.5 55.04 15.5H52.16V20.1ZM67.0986 28.24C66.0319 28.24 65.0586 27.9933 64.1786 27.5C63.3119 27.0067 62.6186 26.3333 62.0986 25.48C61.5919 24.6267 61.3386 23.6533 61.3386 22.56C61.3386 21.4667 61.5919 20.4933 62.0986 19.64C62.6186 18.7867 63.3119 18.1133 64.1786 17.62C65.0453 17.1267 66.0119 16.88 67.0786 16.88C68.1586 16.88 69.1319 17.1267 69.9986 17.62C70.8653 18.1133 71.5519 18.7867 72.0586 19.64C72.5786 20.4933 72.8386 21.4667 72.8386 22.56C72.8386 23.6533 72.5786 24.6267 72.0586 25.48C71.5386 26.3333 70.8453 27.0067 69.9786 27.5C69.1119 27.9933 68.1519 28.24 67.0986 28.24ZM67.0786 25.84C67.6786 25.84 68.1986 25.7 68.6386 25.42C69.0919 25.14 69.4453 24.7533 69.6986 24.26C69.9653 23.7667 70.0986 23.2 70.0986 22.56C70.0986 21.92 69.9653 21.36 69.6986 20.88C69.4453 20.3867 69.0919 20 68.6386 19.72C68.1986 19.4267 67.6786 19.28 67.0786 19.28C66.4919 19.28 65.9719 19.4267 65.5186 19.72C65.0653 20 64.7053 20.3867 64.4386 20.88C64.1853 21.3733 64.0586 21.9333 64.0586 22.56C64.0586 23.1867 64.1853 23.7533 64.4386 24.26C64.7053 24.7533 65.0653 25.14 65.5186 25.42C65.9719 25.7 66.4919 25.84 67.0786 25.84ZM74.8255 28V12.86H77.4455V28H74.8255ZM81.1845 32.42C80.8912 32.42 80.6045 32.3933 80.3245 32.34C80.0445 32.3 79.7912 32.2267 79.5645 32.12V29.92C79.7379 29.96 79.9445 30 80.1845 30.04C80.4379 30.08 80.6712 30.1 80.8845 30.1C81.4845 30.1 81.9179 29.96 82.1845 29.68C82.4645 29.4 82.7112 29.0333 82.9245 28.58L83.6445 26.9L83.6045 29.1L78.8645 17.12H81.6845L85.0045 25.96H84.0045L87.3045 17.12H90.1445L85.4045 29.1C85.1245 29.8067 84.7845 30.4067 84.3845 30.9C83.9845 31.3933 83.5179 31.7667 82.9845 32.02C82.4645 32.2867 81.8645 32.42 81.1845 32.42ZM96.668 32.4C95.8546 32.4 95.1013 32.2667 94.408 32C93.7146 31.7333 93.1146 31.36 92.608 30.88C92.1146 30.4133 91.7546 29.86 91.528 29.22L93.968 28.3C94.128 28.8067 94.4413 29.2133 94.908 29.52C95.388 29.84 95.9746 30 96.668 30C97.2013 30 97.668 29.9 98.068 29.7C98.4813 29.5 98.8013 29.2067 99.028 28.82C99.2546 28.4467 99.368 27.9933 99.368 27.46V24.98L99.868 25.58C99.4946 26.2333 98.9946 26.7267 98.368 27.06C97.7413 27.3933 97.028 27.56 96.228 27.56C95.2146 27.56 94.308 27.3267 93.508 26.86C92.708 26.3933 92.0813 25.7533 91.628 24.94C91.1746 24.1267 90.948 23.2133 90.948 22.2C90.948 21.1733 91.1746 20.26 91.628 19.46C92.0813 18.66 92.7013 18.0333 93.488 17.58C94.2746 17.1133 95.168 16.88 96.168 16.88C96.9813 16.88 97.6946 17.0533 98.308 17.4C98.9346 17.7333 99.4546 18.22 99.868 18.86L99.508 19.52V17.12H101.988V27.46C101.988 28.4067 101.755 29.2533 101.288 30C100.835 30.7467 100.208 31.3333 99.408 31.76C98.6213 32.1867 97.708 32.4 96.668 32.4ZM96.548 25.14C97.108 25.14 97.5946 25.02 98.008 24.78C98.4346 24.5267 98.768 24.18 99.008 23.74C99.248 23.3 99.368 22.7933 99.368 22.22C99.368 21.66 99.2413 21.16 98.988 20.72C98.748 20.2667 98.4146 19.9133 97.988 19.66C97.5746 19.4067 97.0946 19.28 96.548 19.28C96.0013 19.28 95.508 19.4067 95.068 19.66C94.628 19.9133 94.2813 20.2667 94.028 20.72C93.788 21.16 93.668 21.66 93.668 22.22C93.668 22.78 93.788 23.28 94.028 23.72C94.2813 24.16 94.6213 24.5067 95.048 24.76C95.488 25.0133 95.988 25.14 96.548 25.14ZM109.755 28.24C108.688 28.24 107.715 27.9933 106.835 27.5C105.968 27.0067 105.275 26.3333 104.755 25.48C104.248 24.6267 103.995 23.6533 103.995 22.56C103.995 21.4667 104.248 20.4933 104.755 19.64C105.275 18.7867 105.968 18.1133 106.835 17.62C107.702 17.1267 108.668 16.88 109.735 16.88C110.815 16.88 111.788 17.1267 112.655 17.62C113.522 18.1133 114.208 18.7867 114.715 19.64C115.235 20.4933 115.495 21.4667 115.495 22.56C115.495 23.6533 115.235 24.6267 114.715 25.48C114.195 26.3333 113.502 27.0067 112.635 27.5C111.768 27.9933 110.808 28.24 109.755 28.24ZM109.735 25.84C110.335 25.84 110.855 25.7 111.295 25.42C111.748 25.14 112.102 24.7533 112.355 24.26C112.622 23.7667 112.755 23.2 112.755 22.56C112.755 21.92 112.622 21.36 112.355 20.88C112.102 20.3867 111.748 20 111.295 19.72C110.855 19.4267 110.335 19.28 109.735 19.28C109.148 19.28 108.628 19.4267 108.175 19.72C107.722 20 107.362 20.3867 107.095 20.88C106.842 21.3733 106.715 21.9333 106.715 22.56C106.715 23.1867 106.842 23.7533 107.095 24.26C107.362 24.7533 107.722 25.14 108.175 25.42C108.628 25.7 109.148 25.84 109.735 25.84ZM117.482 28V17.12H119.942V19.26L119.742 18.88C119.995 18.2267 120.408 17.7333 120.982 17.4C121.568 17.0533 122.248 16.88 123.022 16.88C123.822 16.88 124.528 17.0533 125.142 17.4C125.768 17.7467 126.255 18.2333 126.602 18.86C126.948 19.4733 127.122 20.1867 127.122 21V28H124.502V21.62C124.502 21.14 124.408 20.7267 124.222 20.38C124.035 20.0333 123.775 19.7667 123.442 19.58C123.122 19.38 122.742 19.28 122.302 19.28C121.875 19.28 121.495 19.38 121.162 19.58C120.828 19.7667 120.568 20.0333 120.382 20.38C120.195 20.7267 120.102 21.14 120.102 21.62V28H117.482Z" fill="white"/>
<rect x="137" y="6.5" width="45" height="27" rx="4" fill="#7A55FF" fill-opacity="0.2"/>
<path d="M146.008 25.5H152.378V23.82H147.912V15.07H146.008V25.5ZM153.736 17.03H155.57V15.07H153.736V17.03ZM153.736 25.5H155.57V17.884H153.736V25.5ZM159.839 25.5H161.463L164.459 17.884H162.457L160.651 22.854L158.845 17.884H156.843L159.839 25.5ZM169.228 25.668C170.003 25.668 170.679 25.4953 171.258 25.15C171.846 24.7953 172.257 24.3473 172.49 23.806L171.006 23.078C170.838 23.3673 170.605 23.6053 170.306 23.792C170.017 23.9693 169.662 24.058 169.242 24.058C168.691 24.058 168.229 23.89 167.856 23.554C167.483 23.218 167.268 22.77 167.212 22.21H172.7C172.737 22.1073 172.761 21.9907 172.77 21.86C172.789 21.72 172.798 21.58 172.798 21.44C172.798 20.7587 172.653 20.138 172.364 19.578C172.075 19.018 171.655 18.57 171.104 18.234C170.553 17.8887 169.881 17.716 169.088 17.716C168.379 17.716 167.735 17.8887 167.156 18.234C166.587 18.5793 166.134 19.0507 165.798 19.648C165.471 20.236 165.308 20.9127 165.308 21.678C165.308 22.4153 165.471 23.0873 165.798 23.694C166.125 24.3007 166.582 24.7813 167.17 25.136C167.758 25.4907 168.444 25.668 169.228 25.668ZM169.088 19.228C169.573 19.228 169.975 19.3773 170.292 19.676C170.619 19.9653 170.801 20.3433 170.838 20.81H167.254C167.357 20.306 167.571 19.9187 167.898 19.648C168.234 19.368 168.631 19.228 169.088 19.228Z" fill="#9577FF"/>
<defs>
<clipPath id="clip0_432_1047">
<rect width="40" height="40" fill="white"/>
</clipPath>
</defs>
</svg>
