<svg width="40" height="40" viewBox="0 0 40 40" fill="none" xmlns="http://www.w3.org/2000/svg">
<path d="M20 40C31.0457 40 40 31.0457 40 20C40 8.9543 31.0457 0 20 0C8.9543 0 0 8.9543 0 20C0 31.0457 8.9543 40 20 40Z" fill="white"/>
<path d="M33.3327 20.4669V26.5006C33.3305 26.8769 33.2311 27.2461 33.0441 27.5723C32.8572 27.8984 32.5891 28.1703 32.266 28.3613L27.0577 31.3719C26.7351 31.5649 26.3666 31.6667 25.991 31.6667C25.6155 31.6667 25.2469 31.5649 24.9244 31.3719L19.716 28.3613C19.393 28.1703 19.1249 27.8984 18.9379 27.5723C18.751 27.2461 18.6515 26.8769 18.6494 26.5006V24.8071L21.316 23.2538V26.1974L25.9827 28.9153L30.6494 26.1974V20.7742L25.9827 18.0563L15.0494 24.412C14.7238 24.5961 14.3564 24.6928 13.9827 24.6928C13.609 24.6928 13.2416 24.5961 12.916 24.412L7.70767 21.3889C7.38962 21.1949 7.12667 20.922 6.94422 20.5965C6.76177 20.2709 6.66597 19.9037 6.66602 19.5302V13.4965C6.66817 13.1202 6.76762 12.751 6.95457 12.4248C7.14157 12.0987 7.40967 11.8268 7.73267 11.6358L12.941 8.62517C13.2643 8.43412 13.6326 8.33337 14.0077 8.33337C14.3828 8.33337 14.7511 8.43412 15.0744 8.62517L20.2827 11.6358C20.6057 11.8268 20.8738 12.0987 21.0608 12.4248C21.2478 12.751 21.3472 13.1202 21.3494 13.4965V15.1899L18.666 16.7329V13.8059L13.9994 11.088L9.33267 13.8059V19.2229L13.9994 21.9408L24.9327 15.5851C25.2583 15.401 25.6257 15.3043 25.9994 15.3043C26.3731 15.3043 26.7404 15.401 27.066 15.5851L32.2744 18.6082C32.5955 18.8001 32.8618 19.0721 33.0472 19.3978C33.2327 19.7235 33.331 20.0918 33.3327 20.4669Z" fill="#7B3FE4"/>
</svg>
