<svg width="20" height="21" viewBox="0 0 20 21" fill="none" xmlns="http://www.w3.org/2000/svg">
<path d="M2.8125 3.66406C4.71354 1.76302 7.00521 0.8125 9.6875 0.8125C12.3698 0.8125 14.6484 1.76302 16.5234 3.66406C18.4245 5.53906 19.375 7.81771 19.375 10.5C19.375 13.1823 18.4245 15.474 16.5234 17.375C14.6484 19.25 12.3698 20.1875 9.6875 20.1875C7.00521 20.1875 4.71354 19.25 2.8125 17.375C0.9375 15.474 0 13.1823 0 10.5C0 7.81771 0.9375 5.53906 2.8125 3.66406ZM14.4531 7.45312C14.5052 7.14062 14.4531 6.91927 14.2969 6.78906C14.1667 6.63281 13.9974 6.59375 13.7891 6.67188L4.45312 10.3047C4.11458 10.4089 3.93229 10.5391 3.90625 10.6953C3.90625 10.8516 4.04948 10.9688 4.33594 11.0469L6.71875 11.7891L12.2656 8.3125C12.4219 8.20833 12.5391 8.19531 12.6172 8.27344C12.6432 8.29948 12.6302 8.33854 12.5781 8.39062L8.08594 12.4531L7.89062 14.9141C8.07292 14.9141 8.24219 14.8359 8.39844 14.6797L9.57031 13.5469L11.9922 15.3438C12.4609 15.6042 12.7474 15.474 12.8516 14.9531L14.4531 7.45312Z" fill="#686C74"/>
</svg>
